<?xml version="1.0" encoding="UTF-8"?>
<svg width="797px" height="104px" viewBox="0 0 797 104" version="1.1" xmlns="http://www.w3.org/2000/svg" xmlns:xlink="http://www.w3.org/1999/xlink">
    <!-- Generator: Sketch 60.1 (88133) - https://sketch.com -->
    <title>MENU.Fit</title>
    <desc>Created with Sketch.</desc>
    <g id="Page-1" stroke="none" stroke-width="1" fill="none" fill-rule="evenodd">
        <rect id="Rectangle" stroke="#979797" fill="#001529"></rect>
        <path d="M14.4130883,102.88 L14.4130883,27.14 L45.4930883,102.88 L58.7930883,102.88 L89.8730883,27.14 L89.8730883,102.88 L104.013088,102.88 L104.013088,0.54 L85.9530883,0.54 L52.2130883,84.12 L18.3330883,0.54 L0.273088302,0.54 L0.273088302,102.88 L14.4130883,102.88 Z M219.257316,102.88 L219.257316,89.44 L157.517316,89.44 L157.517316,57.24 L213.517316,57.24 L213.517316,43.8 L157.517316,43.8 L157.517316,13.84 L219.257316,13.84 L219.257316,0.54 L143.377316,0.54 L143.377316,102.88 L219.257316,102.88 Z M271.501544,102.88 L271.501544,23.36 L327.921544,102.88 L343.741544,102.88 L343.741544,0.54 L329.461544,0.54 L329.461544,79.78 L273.181544,0.54 L257.221544,0.54 L257.221544,102.88 L271.501544,102.88 Z M425.525772,104 C439.619105,104 450.072439,100.733333 456.885772,94.2 C464.445772,87.2 468.225772,75.9066667 468.225772,60.32 L468.225772,60.32 L468.225772,0.54 L453.525772,0.54 L453.525772,60.32 C453.525772,71.9866667 451.239105,80.0133333 446.665772,84.4 C442.652439,88.2266667 435.605772,90.14 425.525772,90.14 C415.539105,90.14 408.539105,88.2266667 404.525772,84.4 C399.952439,80.0133333 397.665772,71.9866667 397.665772,60.32 L397.665772,60.32 L397.665772,0.54 L383.105772,0.54 L383.105772,60.32 C383.105772,75.9066667 386.792439,87.2 394.165772,94.2 C400.979105,100.733333 411.432439,104 425.525772,104 Z M534.61,104 L534.61,86.08 L516.69,86.08 L516.69,104 L534.61,104 Z M597.074228,102.88 L597.074228,57.24 L653.074228,57.24 L653.074228,43.8 L597.074228,43.8 L597.074228,13.84 L658.814228,13.84 L658.814228,0.54 L582.934228,0.54 L582.934228,102.88 L597.074228,102.88 Z M713.158456,15.66 L713.158456,0.68 L698.878456,0.68 L698.878456,15.66 L713.158456,15.66 Z M713.298456,102.88 L713.298456,30.64 L698.878456,30.64 L698.878456,102.88 L713.298456,102.88 Z M796.062684,103.86 L796.062684,90.56 L783.182684,90.56 C781.40935,90.56 780.196017,90 779.542684,88.88 C779.16935,88.1333333 778.982684,86.78 778.982684,84.82 L778.982684,84.82 L778.982684,43.52 L796.762684,43.52 L796.762684,30.08 L778.982684,30.08 L778.982684,11.04 L764.702684,11.04 L764.702684,30.08 L751.962684,30.08 L751.962684,43.52 L764.702684,43.52 L764.702684,83.56 C764.702684,90.56 766.056017,95.6933333 768.762684,98.96 C771.562684,102.226667 776.182684,103.86 782.622684,103.86 L782.622684,103.86 L796.062684,103.86 Z" id="MENU.Fit" fill="#FFFFFF" fill-rule="nonzero"></path>
    </g>
</svg>