<?xml version="1.0" encoding="UTF-8"?>
<svg width="197px" height="184px" viewBox="0 0 197 184" version="1.1" xmlns="http://www.w3.org/2000/svg" xmlns:xlink="http://www.w3.org/1999/xlink">
    <!-- Generator: Sketch 60.1 (88133) - https://sketch.com -->
    <title>foods</title>
    <desc>Created with Sketch.</desc>
    <g id="Page-1" stroke="none" stroke-width="1" fill="none" fill-rule="evenodd">
        <g id="Group" transform="translate(-415.000000, -312.000000)" fill="#FFFFFF">
            <rect id="Rectangle" x="0" y="0" width="500" height="500"></rect>
        </g>
        <g id="foods" fill-rule="nonzero">
            <path d="M192.062028,39.4389051 L164.595375,39.4389051 L164.373808,39.1867773 L144.180661,39.1867773 C142.492826,39.1867773 141.124566,37.818517 141.124566,36.1306824 C141.124566,34.4428477 142.492826,33.0745874 144.180661,33.0745874 L173.725459,33.0745874 C175.413293,33.0745874 176.781554,31.7063271 176.781554,30.0184925 C176.781554,28.3306578 175.413293,26.9623975 173.725459,26.9623975 L150.972832,26.9623975 C120.651105,4.66400854 79.3890778,4.53776613 48.9314747,26.6501989 C18.4738716,48.7626317 5.81572623,88.0352964 17.6277697,123.771845 L5.89236514,123.771845 C4.20453051,123.771845 2.83627019,125.140105 2.83627019,126.82794 C2.83627019,128.515775 4.20453051,129.884035 5.89236514,129.884035 L19.9122008,129.884035 C21.6742051,134.119368 23.7717559,138.207165 26.1848356,142.108414 L59.3816669,142.108414 C61.0695015,142.108414 62.4377618,143.476675 62.4377618,145.164509 C62.4377618,146.852344 61.0695015,148.220604 59.3816669,148.220604 L30.348765,148.220604 C33.634114,152.637553 37.3334771,156.730901 41.396548,160.444984 L3.3481661,160.444984 C1.66033146,160.444984 0.292071143,161.813245 0.292071143,163.501079 C0.292071143,165.188914 1.66033146,166.557174 3.3481661,166.557174 L48.4255665,166.557174 C48.5527791,166.56514 48.6803656,166.56514 48.8075783,166.557174 C83.239686,191.692569 130.854289,187.978109 160.971895,157.807131 C191.0895,127.636152 194.719649,80.0150468 169.523328,45.6274973 L192.062028,45.6274973 C193.749863,45.6274973 195.118123,44.259237 195.118123,42.5714024 C195.118123,40.8835677 193.749863,39.5153074 192.062028,39.5153074 L192.062028,39.4389051 Z M36.5831985,120.555305 L21.6847358,120.555305 C19.9969012,120.555305 18.6286409,119.187045 18.6286409,117.49921 C18.6286409,115.811375 19.9969012,114.443115 21.6847358,114.443115 L36.5831985,114.443115 C38.2710331,114.443115 39.6392934,115.811375 39.6392934,117.49921 C39.6392934,119.187045 38.2710331,120.555305 36.5831985,120.555305 L36.5831985,120.555305 Z M108.08054,44.9169552 C108.08054,45.7274821 107.758559,46.5048118 107.18543,47.0779408 C106.612301,47.6510698 105.834971,47.9730503 105.024445,47.9730503 L91.1497737,47.9730503 C90.3392469,47.9730503 89.5619171,47.6510698 88.9887881,47.0779408 C88.4156591,46.5048118 88.0936787,45.7274821 88.0936787,44.9169552 C88.0936787,44.1064285 88.4156592,43.3290987 88.9887882,42.7559698 C89.5619172,42.1828408 90.3392469,41.8608604 91.1497737,41.8608604 L105.024445,41.8608604 C105.834971,41.8608604 106.612301,42.1828408 107.18543,42.7559698 C107.758559,43.3290987 108.08054,44.1064285 108.08054,44.9169552 L108.08054,44.9169552 Z" id="Shape" fill="#D9F9D9" opacity="0.7"></path>
            <path d="M171.395186,9.47389429 L167.788994,8.67930952 L165.091991,11.200588 L164.732899,7.52563371 L161.501079,5.74545848 L164.878064,4.26325238 L165.580966,0.64178 L168.033482,3.39990552 L171.693156,2.94149143 L169.828938,6.12747029 L171.395186,9.47389429 Z M4.44072,158.214035 L4.02814724,153.966063 L0.292071238,151.903199 L4.19623257,150.199426 L5.00609771,146.012576 L7.84062571,149.198555 L12.0733171,148.671378 L9.91877029,152.353973 L11.7524272,156.212293 L7.5884979,155.295464 L4.44072,158.214035 Z M2.01876476,151.987241 L4.74632952,153.515289 L5.05193905,156.617225 L7.34401029,154.485599 L10.4001051,155.15794 L9.07834419,152.331052 L10.652233,149.641689 L7.55793695,150.031341 L5.48743257,147.693428 L4.89913429,150.749523 L2.01876476,151.987241 Z" id="Shape" fill="#F7D854"></path>
            <path d="M18.1931472,40.2640587 C16.6713889,40.2671407 15.2978968,39.352425 14.7141168,37.9470926 C14.1303369,36.5417603 14.4514548,34.9230976 15.5275027,33.8470497 C16.6035506,32.7710019 18.2222132,32.4498839 19.6275456,33.0336639 C21.0328779,33.6174438 21.9475937,34.9909359 21.9445116,36.5126943 C21.9403006,38.5827678 20.2632207,40.2598477 18.1931472,40.2640587 L18.1931472,40.2640587 Z M18.1931472,34.2817318 C17.2901236,34.2786524 16.4742966,34.8202406 16.1265795,35.6536397 C15.7788624,36.4870387 15.9678425,37.4478603 16.6052841,38.0874924 C17.2427258,38.7271246 18.2028934,38.9193997 19.0374804,38.5745436 C19.8720674,38.2296875 20.4164564,37.4157232 20.4164564,36.5126943 C20.4164564,35.2835525 19.4222818,34.2859543 18.1931472,34.2817318 L18.1931472,34.2817318 Z" id="Shape" fill="#25D8EF"></path>
            <path d="M1.89652095,97.4206663 C1.47471128,97.4204557 1.13287862,97.0784523 1.13287862,96.6566426 C1.13287862,96.2348328 1.47471128,95.8928295 1.89652095,95.8926189 L9.15474648,95.7932958 C9.57655615,95.7935064 9.9183888,96.1355098 9.9183888,96.5573195 C9.9183888,96.9791293 9.57655615,97.3211326 9.15474648,97.3213432 L1.89652095,97.4206663 Z" id="Path" fill="#45EF37"></path>
            <path d="M5.57147524,101.003938 C5.14951654,101.003938 4.80745143,100.661873 4.80745143,100.239914 L4.70812838,92.9816884 C4.70812838,92.5597298 5.05019357,92.2176648 5.47215219,92.2176648 C5.89411074,92.2176648 6.2361757,92.5597298 6.23617581,92.9816884 L6.33549886,100.239914 C6.33549886,100.661873 5.99343386,101.003938 5.57147524,101.003938 L5.57147524,101.003938 Z" id="Path" fill="#45EF37"></path>
            <path d="M192.062028,84.8066345 C189.652645,84.8066345 187.699453,82.8534428 187.699453,80.444059 C187.699453,78.0346752 189.652645,76.0814836 192.062029,76.0814836 C194.471412,76.0814836 196.424604,78.034675 196.424604,80.4440589 C196.424604,81.6010859 195.964977,82.7107241 195.146835,83.5288657 C194.328694,84.3470074 193.219055,84.8066345 192.062028,84.8066345 Z M192.062028,76.8455072 C190.60655,76.8455072 189.294387,77.7222663 188.7374,79.0669529 C188.180413,80.4116396 188.488289,81.9594409 189.517468,82.9886195 C190.546647,84.0177981 192.094448,84.3256749 193.439135,83.7686874 C194.783821,83.2116998 195.66058,81.8995372 195.66058,80.4440589 C195.66058,78.4566336 194.049454,76.8455072 192.062028,76.8455072 Z" id="Shape" fill="#F7802F"></path>
            <path d="M156.343919,174.609984 C156.343919,176.45246 157.326868,178.154978 158.922499,179.076216 C160.51813,179.997454 162.484028,179.997454 164.079659,179.076216 C165.67529,178.154978 166.658239,176.45246 166.658239,174.609984 C166.658239,171.761763 164.3493,169.452824 161.501079,169.452824 C158.652858,169.452824 156.343919,171.761763 156.343919,174.609984 L156.343919,174.609984 Z" id="Path" fill="#5886FF"></path>
            <path d="M28.5609493,4.39313638 C28.982908,4.39313638 29.3249731,4.05107139 29.3249731,3.62911276 L29.3249731,0.76402381 C29.3247625,0.342214134 28.9827592,0.000381481763 28.5609494,0.000381481763 C28.1391397,0.000381481763 27.7971363,0.342214134 27.7969257,0.76402381 L27.7969257,3.62911276 C27.7969257,4.05107131 28.1389908,4.39313638 28.5609493,4.39313638 Z M26.3758415,4.79806914 C26.6754322,5.09765977 27.1611646,5.09765976 27.4607552,4.79806912 C27.7603459,4.49847848 27.7603459,4.01274608 27.4607552,3.71315543 L25.4360924,1.69613276 C25.1386116,1.39654213 24.6545895,1.39483178 24.3549989,1.69231259 C24.0554082,1.9897934 24.0536979,2.47381544 24.3511787,2.7734061 L26.3758415,4.79806914 Z M26.97178,5.8600621 C26.97178,5.4381034 26.6297149,5.09603829 26.2077562,5.09603829 L23.3426672,5.09603829 C22.9208576,5.0962489 22.5790249,5.43825227 22.5790249,5.860062 C22.5790249,6.28187173 22.9208576,6.6238751 23.3426672,6.62408571 L26.200116,6.62408571 C26.4040682,6.62612533 26.6003692,6.54653153 26.7453081,6.40302765 C26.8902471,6.25952377 26.97178,6.0640245 26.97178,5.8600621 L26.97178,5.8600621 Z M26.2688781,6.96025619 L24.2442152,8.98491905 C23.9446246,9.2845097 23.9446246,9.7702421 24.2442153,10.0698327 C24.5438059,10.3694234 25.0295383,10.3694234 25.329129,10.0698328 L27.3537918,8.0451699 C27.6533825,7.74557926 27.6533825,7.25984684 27.3537918,6.96025619 C27.0542012,6.66066554 26.5684687,6.66066554 26.2688781,6.96025619 L26.2688781,6.96025619 Z M28.4387055,7.44923143 C28.016747,7.44923143 27.6746819,7.7912965 27.6746819,8.21325505 L27.6746819,11.0783442 C27.6748925,11.5001539 28.0168959,11.8419865 28.4387056,11.8419865 C28.8605153,11.8419865 29.2025187,11.5001539 29.2027293,11.0783442 L29.2027293,8.21325505 C29.2027293,7.79129642 28.8606641,7.44923143 28.4387055,7.44923143 L28.4387055,7.44923143 Z M30.6238135,7.04429886 C30.4300124,6.85049768 30.147541,6.77480969 29.8828037,6.84574584 C29.6180663,6.91668199 29.4112829,7.12346538 29.3403468,7.38820271 C29.2694106,7.65294004 29.3450986,7.9354114 29.5388998,8.12921257 L31.5635627,10.1462352 C31.8615606,10.4424653 32.3428383,10.4424653 32.6408362,10.1462352 C32.9370662,9.84823734 32.9370662,9.36695961 32.6408362,9.06896171 L30.6238135,7.04429886 Z M33.6493474,5.21064181 L30.7918987,5.21064181 C30.370089,5.21085252 30.0282563,5.55285589 30.0282563,5.97466562 C30.0282563,6.39647535 30.370089,6.73847872 30.7918987,6.73868943 L33.6493474,6.73868943 C33.9223977,6.73882567 34.1747649,6.5932334 34.3113293,6.35678764 C34.4478938,6.12034189 34.4478938,5.82898935 34.3113293,5.5925436 C34.1747649,5.35609784 33.9223977,5.21050557 33.6493474,5.21064181 L33.6493474,5.21064181 Z M30.7002158,4.88211162 L32.7248787,2.85744876 C33.0244693,2.55152877 33.0193384,2.06066542 32.7134184,1.76107478 C32.4074984,1.46148413 31.916635,1.46661507 31.6170444,1.77253505 L29.6153021,3.82011867 C29.3768485,4.12672384 29.4063862,4.56344229 29.6839541,4.83514605 C29.961522,5.10684981 30.3987715,5.12705688 30.7002158,4.88211162 L30.7002158,4.88211162 Z" id="Shape" fill="#FA7F80"></path>
            <path d="M188.142587,155.860842 C188.564545,155.860842 188.90661,155.518777 188.90661,155.096818 L188.90661,152.231729 C188.90661,151.80977 188.564545,151.467705 188.142587,151.467705 C187.720628,151.467705 187.378563,151.80977 187.378563,152.231729 L187.378563,155.096818 C187.378563,155.518777 187.720628,155.860842 188.142587,155.860842 Z M185.949838,156.281055 C186.093297,156.425694 186.288578,156.507052 186.492295,156.507052 C186.696013,156.507052 186.891294,156.425694 187.034752,156.281055 C187.330982,155.983057 187.330982,155.501779 187.034752,155.203781 L185.010089,153.179118 C184.866631,153.034479 184.67135,152.953122 184.467632,152.953122 C184.263915,152.953122 184.068634,153.034479 183.925176,153.179118 C183.628946,153.477116 183.628946,153.958394 183.925176,154.256392 L185.949838,156.281055 Z M186.553418,157.343048 C186.553418,156.921089 186.211352,156.579024 185.789394,156.579024 L182.893744,156.579024 C182.471934,156.579235 182.130101,156.921238 182.130101,157.343048 C182.130101,157.764857 182.471934,158.106861 182.893744,158.107071 L185.758833,158.107071 C185.966706,158.115393 186.168983,158.038587 186.318945,157.894393 C186.468907,157.750199 186.553584,157.551087 186.553418,157.343048 L186.553418,157.343048 Z M185.873436,158.443242 L183.856414,160.444984 C183.662612,160.637421 183.586196,160.918631 183.65595,161.182686 C183.725705,161.446741 183.931032,161.653524 184.194587,161.725143 C184.458143,161.796761 184.739886,161.722334 184.933687,161.529898 L186.95835,159.505235 C187.152151,159.311434 187.227839,159.028962 187.156903,158.764225 C187.085967,158.499488 186.879183,158.292704 186.614446,158.221768 C186.349709,158.150832 186.067237,158.22652 185.873436,158.420321 L185.873436,158.443242 Z M188.020343,158.916937 C187.598384,158.916937 187.256319,159.259002 187.256319,159.68096 L187.256319,162.546049 C187.25653,162.967859 187.598533,163.309692 188.020343,163.309692 C188.442153,163.309692 188.784156,162.967859 188.784367,162.546049 L188.784367,159.68096 C188.784367,159.259002 188.442301,158.916937 188.020343,158.916937 L188.020343,158.916937 Z M190.205451,158.527285 C189.90586,158.227694 189.420128,158.227694 189.120537,158.527285 C188.820946,158.826875 188.820946,159.312608 189.120537,159.612198 L191.1452,161.629221 C191.442681,161.928812 191.926703,161.930522 192.226294,161.633041 C192.525884,161.33556 192.527595,160.851538 192.230114,160.551947 L190.205451,158.527285 Z M193.238625,156.693628 L190.373536,156.693628 C189.951726,156.693838 189.609894,157.035842 189.609894,157.457651 C189.609894,157.879461 189.951726,158.221464 190.373536,158.221675 L193.238625,158.221675 C193.660435,158.221464 194.002267,157.879461 194.002267,157.457651 C194.002267,157.035842 193.660435,156.693838 193.238625,156.693628 L193.238625,156.693628 Z M190.289493,156.365097 L192.306516,154.340434 C192.451155,154.196976 192.532513,154.001695 192.532513,153.797978 C192.532513,153.59426 192.451155,153.398979 192.306516,153.255521 C192.008518,152.959291 191.52724,152.959291 191.229242,153.255521 L189.20458,155.280184 C188.904989,155.579774 188.904989,156.065507 189.20458,156.365097 C189.50417,156.664688 189.989903,156.664688 190.289493,156.365097 L190.289493,156.365097 Z" id="Shape" fill="#C39DF4"></path>
            <path d="M33.5882255,120.501823 L181.380977,120.501823 C183.418373,120.501823 184.437072,121.520522 184.437072,123.557918 L184.437072,124.008692 C184.437072,126.046089 183.418373,127.064787 181.380977,127.064787 L33.5882255,127.064787 C31.550829,127.064787 30.5321307,126.046089 30.5321307,124.008692 L30.5321307,123.557918 C30.5321307,121.520522 31.550829,120.501823 33.5882255,120.501823 Z" id="Path" fill="#F1F7FA"></path>
            <path d="M180.127978,120.501823 L163.586864,120.501823 C165.397066,120.501823 166.864526,121.969282 166.864526,123.779485 C166.864526,125.589688 165.397066,127.057147 163.586864,127.057147 L180.127978,127.057147 C181.93818,127.057147 183.40564,125.589688 183.40564,123.779485 C183.40564,121.969282 181.93818,120.501823 180.127978,120.501823 L180.127978,120.501823 Z" id="Path" fill="#96E1EE"></path>
            <path d="M174.489482,129.120011 L28.9964429,129.120011 C25.4097943,129.120011 22.5022411,126.212458 22.5022411,122.625809 C22.5022411,119.039161 25.4097943,116.131608 28.9964429,116.131608 L164.343247,116.131608 C165.608865,116.131972 166.634658,117.158061 166.634658,118.423679 C166.634658,119.689297 165.608865,120.715385 164.343247,120.71575 L28.9964429,120.71575 C28.3139007,120.715534 27.6831135,121.079542 27.3417802,121.670605 C27.0004469,122.261668 27.0004469,122.98995 27.3417802,123.581013 C27.6831135,124.172076 28.3139007,124.536084 28.9964429,124.535869 L174.489482,124.535869 C175.544144,124.535536 176.398939,123.68047 176.398939,122.625809 C176.398939,121.571148 175.544144,120.716083 174.489482,120.71575 L171.624394,120.71575 C170.358776,120.715385 169.332983,119.689297 169.332983,118.423679 C169.332983,117.158061 170.358776,116.131972 171.624394,116.131608 L174.489482,116.131608 C178.076131,116.131608 180.983684,119.039161 180.983684,122.625809 C180.983684,126.212458 178.076131,129.120011 174.489482,129.120011 L174.489482,129.120011 Z" id="Path" fill="#1E1E1E"></path>
            <path d="M65.9981124,83.6300379 L35.437163,83.6300379 C35.8103693,82.0404865 35.4370115,80.3675269 34.4233903,79.0874767 C33.4097691,77.8074264 31.8669367,77.0605275 30.2341613,77.0594268 C27.9445003,77.0557767 25.9065131,78.51006 25.1653771,80.6764575 C24.4242411,82.842855 25.144391,85.2407115 26.9564994,86.6402914 C25.0176839,88.1139283 24.3362532,90.7212846 25.3061271,92.9551054 C26.276001,95.1889263 28.6462661,96.471306 31.0467248,96.0609293 C33.4471836,95.6505526 35.2568197,93.653587 35.4295227,91.2244339 L65.9981124,91.2244339 L65.9981124,83.6300379 Z" id="Path" fill="#F1F7FA"></path>
            <path d="M54.5377564,90.0783983 L43.4594122,90.0783983 C42.1935362,90.0783983 41.167341,89.052203 41.167341,87.786327 C41.167341,86.5204511 42.1935362,85.4942558 43.4594122,85.4942558 L54.5377564,85.4942558 C55.8036324,85.4942558 56.8298276,86.5204511 56.8298276,87.786327 C56.8298276,89.052203 55.8036324,90.0783983 54.5377564,90.0783983 L54.5377564,90.0783983 Z" id="Path" fill="#1E1E1E"></path>
            <path d="M29.4319364,95.0216318 C26.6338179,95.0213385 24.0630108,93.4809018 22.7430985,91.0136566 C21.4231863,88.5464114 21.5684686,85.5529373 23.1211004,83.2251053 C21.3905986,80.6091116 21.4347456,77.2012246 23.2324323,74.6309362 C25.030119,72.0606478 28.2160926,70.8501874 31.26697,71.5783405 C34.3178474,72.3064935 36.6137534,74.8253144 37.0568933,77.930421 L54.4613539,77.930421 C55.7269718,77.9307858 56.7527644,78.9568741 56.7527644,80.2224921 C56.7527644,81.4881101 55.7269718,82.5141984 54.4613539,82.5145632 L34.6731392,82.5145632 C33.9741524,82.5141166 33.313572,82.1947413 32.8790992,81.6471865 C32.4446263,81.0996318 32.2837527,80.38375 32.4421899,79.702956 C32.4956067,79.4749837 32.5237903,79.2418283 32.5262326,79.0076943 C32.5262326,77.3198596 31.1579723,75.9515993 29.4701376,75.9515993 C27.782303,75.9515993 26.4140427,77.3198596 26.4140427,79.0076943 C26.418141,79.9548665 26.8611887,80.8466058 27.61356,81.4220093 C28.1788536,81.8558039 28.5102469,82.5278309 28.5102469,83.2403858 C28.5102469,83.9529407 28.1788536,84.6249677 27.61356,85.0587623 C26.5122982,85.8937561 26.1253784,87.3738705 26.6771246,88.6409807 C27.2288709,89.9080909 28.5759986,90.6331374 29.9374847,90.3957605 C31.2989708,90.1583837 32.321247,89.0202286 32.411629,87.6411625 C32.4921946,86.4353217 33.495174,85.4992076 34.7037002,85.501896 L37.9890023,85.501896 C39.2548783,85.501896 40.2810735,86.5280912 40.2810735,87.7939672 C40.2810735,89.0598432 39.2548783,90.0860385 37.9890023,90.0860385 L36.529717,90.0860385 C35.4223998,93.0487435 32.5948035,95.0149731 29.4319364,95.0216318 L29.4319364,95.0216318 Z" id="Path" fill="#1E1E1E"></path>
            <path d="M58.9232526,87.274431 C58.9232526,98.1145489 75.7186479,106.902201 96.4368179,106.902201 C117.154988,106.902201 133.950383,98.1145489 133.950383,87.274431 C133.950383,76.4343132 117.154988,67.6466613 96.4368179,67.6466613 C75.7186479,67.6466613 58.9232526,76.4343132 58.9232526,87.274431 Z" id="Path" fill="#F58817"></path>
            <path d="M125.15647,78.8930909 C119.135963,85.0052808 107.45404,89.1233686 94.030143,89.1233686 C80.6062459,89.1233686 68.916683,84.9900002 62.9420173,78.8930909 C60.1915318,81.6817775 58.6252832,84.883037 58.6252832,88.2829425 C58.6252832,99.1244392 74.4940562,107.918352 94.0683444,107.918352 C113.642633,107.918352 129.511405,99.1244392 129.511405,88.2829425 C129.473204,84.883037 127.884035,81.6817773 125.15647,78.8930909 L125.15647,78.8930909 Z" id="Path" fill="#D14808"></path>
            <path d="M92.5020956,104.808776 C69.9633954,104.808776 52.306807,95.1820768 52.306807,82.8889349 C52.306807,77.6706528 55.4240238,72.8420227 61.3146469,68.9302213 C61.9970453,68.4771087 62.8693402,68.4224706 63.6029465,68.7868887 C64.3365528,69.1513068 64.8200182,69.8794174 64.871226,70.6969481 C64.9224338,71.5144788 64.5336042,72.2972274 63.8512057,72.75034 C60.6499463,74.8743259 56.8909495,78.3277133 56.8909493,82.8889349 C56.8909493,92.2864269 73.202856,100.224633 92.5020956,100.224633 C111.801335,100.224633 128.113242,92.2864267 128.113242,82.8889349 C128.113242,73.491443 111.839536,65.5532364 92.5020956,65.5532364 C88.4292803,65.5460861 84.3639121,65.9014862 80.3541183,66.6152293 C79.1325924,66.7923592 77.990164,65.9703822 77.7699089,64.7558913 C77.5496537,63.5414004 78.330679,62.3705937 79.536613,62.1074893 C83.8232878,61.3400878 88.1702045,60.9590934 92.5250164,60.9689021 C115.063717,60.9689021 132.720305,70.595793 132.720305,82.8889349 C132.720305,95.1820768 115.040796,104.808776 92.5020956,104.808776 L92.5020956,104.808776 Z" id="Path" fill="#1E1E1E"></path>
            <path d="M68.6339943,69.9311007 C67.5399668,69.9340198 66.5963804,69.1633591 66.3807508,68.0907881 C66.1651213,67.0182171 66.7375672,65.9427735 67.7477267,65.5226754 C69.2222924,64.9038162 70.8038215,64.3384387 72.4082714,63.834183 C73.617183,63.4586399 74.9016373,64.1342184 75.2771805,65.3431299 C75.6527237,66.5520414 74.9771452,67.8364958 73.7682337,68.212039 C72.2860276,68.6704533 70.8573032,69.1899893 69.5202617,69.7400865 C69.2405034,69.8621292 68.9391876,69.927068 68.6339943,69.9311007 L68.6339943,69.9311007 Z" id="Path" fill="#1E1E1E"></path>
            <path d="M77.7946388,75.454984 C77.794439,75.6734011 78.1074828,75.8752586 78.6158028,75.9844887 C79.1241229,76.0937187 79.7504567,76.0937187 80.2587768,75.9844887 C80.7670969,75.8752586 81.0801406,75.6734011 81.0799409,75.454984 C81.0801406,75.2365669 80.7670969,75.0347094 80.2587768,74.9254793 C79.7504567,74.8162493 79.1241229,74.8162493 78.6158028,74.9254793 C78.1074828,75.0347094 77.794439,75.2365669 77.7946388,75.454984 L77.7946388,75.454984 Z" id="Path" fill="#D14808"></path>
            <path d="M88.4527699,78.5034387 C88.4527699,78.714418 89.0958522,78.8854505 89.8891345,78.8854505 C90.6824167,78.8854505 91.325499,78.714418 91.325499,78.5034387 C91.325499,78.366959 91.0517296,78.2408466 90.6073168,78.1726067 C90.162904,78.1043669 89.6153649,78.1043669 89.1709522,78.1726067 C88.7265394,78.2408466 88.4527699,78.366959 88.4527699,78.5034387 Z" id="Path" fill="#D14808"></path>
            <path d="M98.7059684,76.0203615 C98.7059684,76.3326109 99.5303452,76.5857391 100.547266,76.5857391 C101.564186,76.5857391 102.388563,76.3326109 102.388563,76.0203615 C102.388563,75.7081121 101.564186,75.454984 100.547266,75.454984 C99.5303452,75.454984 98.7059684,75.7081121 98.7059684,76.0203615 L98.7059684,76.0203615 Z" id="Path" fill="#D14808"></path>
            <path d="M99.3171874,83.6300379 C99.3171874,83.8747739 100.165509,84.0731716 101.211966,84.0731716 C102.258424,84.0731716 103.106745,83.8747739 103.106745,83.6300379 C103.106745,83.3853019 102.258424,83.1869042 101.211966,83.1869042 C100.165509,83.1869042 99.3171874,83.3853019 99.3171874,83.6300379 Z" id="Path" fill="#D14808"></path>
            <path d="M68.3665858,75.7605935 C68.3663682,75.8698 68.737657,75.9707256 69.3405402,76.0253388 C69.9434235,76.0799519 70.6862692,76.0799519 71.2891525,76.0253388 C71.8920358,75.9707256 72.2633245,75.8698 72.263107,75.7605935 C72.2633245,75.651387 71.8920358,75.5504614 71.2891525,75.4958483 C70.6862692,75.4412352 69.9434235,75.4412352 69.3405402,75.4958483 C68.737657,75.5504614 68.3663682,75.651387 68.3665858,75.7605935 L68.3665858,75.7605935 Z" id="Path" fill="#D14808"></path>
            <path d="M94.5038379,71.046567 C94.5038379,71.1604959 95.1708648,71.2528535 95.9936842,71.2528535 C96.8165036,71.2528535 97.4835305,71.1604959 97.4835305,71.046567 C97.4835305,70.9326382 96.8165036,70.8402806 95.9936842,70.8402806 C95.1708648,70.8402806 94.5038379,70.9326382 94.5038379,71.046567 L94.5038379,71.046567 Z" id="Path" fill="#D14808"></path>
            <path d="M113.665553,75.1493745 C113.665391,75.2585888 113.870683,75.3595267 114.204059,75.4141472 C114.537435,75.4687676 114.948218,75.4687676 115.281594,75.4141472 C115.61497,75.3595267 115.820262,75.2585888 115.8201,75.1493745 C115.820262,75.0401601 115.61497,74.9392222 115.281594,74.8846018 C114.948218,74.8299813 114.537435,74.8299813 114.204059,74.8846018 C113.870683,74.9392222 113.665391,75.0401601 113.665553,75.1493745 L113.665553,75.1493745 Z" id="Path" fill="#D14808"></path>
            <path d="M77.3133038,82.0179478 C77.3133038,82.1867313 77.9940133,82.3235573 78.833711,82.3235573 C79.6734088,82.3235573 80.3541183,82.1867313 80.3541183,82.0179478 C80.3541183,81.8491643 79.6734088,81.7123383 78.833711,81.7123383 C77.9940133,81.7123383 77.3133038,81.8491643 77.3133038,82.0179478 L77.3133038,82.0179478 Z" id="Path" fill="#D14808"></path>
            <path d="M71.682449,80.5204613 L71.5602051,80.5204613 C71.3593324,80.4885842 71.1794602,80.3779309 71.0604317,80.213012 C70.9414033,80.0480931 70.8930438,79.8425219 70.9260653,79.6418341 C71.0290157,78.2580745 71.7431984,76.9921506 72.8743259,76.1884467 C73.8015692,75.6587806 74.9027455,75.5238865 75.930421,75.814075 C76.3333914,75.9406627 76.557444,76.3699543 76.4308564,76.7729248 C76.3042688,77.1758953 75.8749772,77.399948 75.4720067,77.2733604 C74.8575821,77.1083321 74.2031168,77.1877443 73.6459899,77.4949274 C72.9034642,78.0701767 72.4487094,78.9406277 72.4006312,79.8786813 C72.3431996,80.2355657 72.0435203,80.5033643 71.682449,80.5204613 L71.682449,80.5204613 Z" id="Path" fill="#F9F9F9"></path>
            <path d="M77.5272305,76.8837084 C77.5272305,77.2845691 77.8521923,77.609531 78.253053,77.609531 C78.6539138,77.609531 78.9788756,77.2845691 78.9788756,76.8837084 C78.9788756,76.4828476 78.6539138,76.1578858 78.253053,76.1578858 C77.8521923,76.1578858 77.5272305,76.4828476 77.5272305,76.8837084 Z" id="Path" fill="#F9F9F9"></path>
            <path d="M44.5137649,106.22222 C44.5132697,109.825614 46.4353732,113.155499 49.5559214,114.957339 C52.6764697,116.759179 56.5212867,116.759179 59.641835,114.957339 C62.7623832,113.155499 64.6844866,109.825614 64.6839915,106.22222 C64.6844866,102.618826 62.7623832,99.2889405 59.641835,97.4871005 C56.5212867,95.6852605 52.6764697,95.6852605 49.5559214,97.4871005 C46.4353732,99.2889405 44.5132697,102.618826 44.5137649,106.22222 L44.5137649,106.22222 Z" id="Path" fill="#F42C3F"></path>
            <path d="M54.5988783,118.591764 C47.7651382,118.591764 42.2245128,113.053406 42.2217029,106.219667 C42.2188952,99.3859273 47.754966,93.8430218 54.5887037,93.8373948 C61.4224414,93.8317763 66.967626,99.3655642 66.9760721,106.199299 C66.9801185,109.484579 65.6778882,112.636691 63.3562762,114.96117 C61.0346641,117.285648 57.8841609,118.591764 54.5988783,118.591764 Z M54.5988783,98.4291777 C51.4448041,98.4291777 48.6017388,100.330395 47.3968793,103.24527 C46.1920198,106.160145 46.8629712,109.513862 49.0965207,111.740842 C51.3300702,113.967823 54.685749,114.628893 57.5970626,113.415453 C60.5083763,112.202013 62.4011971,109.35336 62.3919543,106.199299 C62.3792879,101.904275 58.8939213,98.4291777 54.5988783,98.4291777 Z" id="Shape" fill="#1E1E1E"></path>
            <path d="M60.9173545,108.017675 C60.9173545,111.620739 62.8395661,114.950108 65.9599111,116.75164 C69.080256,118.553172 72.9246796,118.553172 76.0450246,116.75164 C79.1653695,114.950108 81.0875811,111.620739 81.0875811,108.017675 C81.0875811,104.414611 79.1653695,101.085243 76.0450246,99.2837108 C72.9246796,97.4821788 69.080256,97.4821788 65.9599111,99.2837108 C62.8395661,101.085243 60.9173545,104.414611 60.9173545,108.017675 Z" id="Path" fill="#F42C3F"></path>
            <path d="M71.0024678,120.394862 C65.9956698,120.397951 61.4801548,117.384307 59.5619943,112.759515 C57.6438337,108.134724 58.7008863,102.809824 62.2401346,99.2683892 C65.7793828,95.7269548 71.1036295,94.6666143 75.7296045,96.5819188 C80.3555795,98.4972233 83.372012,103.010876 83.372012,108.017675 C83.3636029,114.846938 77.8317238,120.382234 71.0024678,120.394862 L71.0024678,120.394862 Z M71.0024678,100.22463 C67.8497831,100.221542 65.0058132,102.118295 63.7971907,105.03011 C62.5885682,107.941924 63.2534206,111.295103 65.4816128,113.525481 C67.7098051,115.75586 71.06233,116.424001 73.9753284,115.218236 C76.8883267,114.01247 78.7878697,111.170362 78.7878697,108.017675 C78.7836672,103.718421 75.3017164,100.233053 71.0024678,100.22463 Z" id="Shape" fill="#1E1E1E"></path>
            <path d="M120.3202,102.516705 C120.3202,108.086559 124.835459,112.601818 130.405313,112.601818 C135.975167,112.601818 140.490426,108.086559 140.490426,102.516705 C140.490426,96.9468503 135.975167,92.4315912 130.405313,92.4315912 C124.835459,92.4315912 120.3202,96.9468503 120.3202,102.516705 L120.3202,102.516705 Z" id="Path" fill="#F42C3F"></path>
            <path d="M130.405313,114.893889 C125.399209,114.893889 120.886039,111.878285 118.970286,107.253248 C117.054532,102.628211 118.113472,97.3045635 121.653322,93.7647135 C125.193172,90.2248635 130.516819,89.1659241 135.141856,91.0816771 C139.766893,92.9974301 142.782498,97.5106007 142.782498,102.516705 C142.774078,109.348944 137.237553,114.88547 130.405313,114.893889 L130.405313,114.893889 Z M130.405313,94.7236625 C126.101335,94.7236625 122.612271,98.2127263 122.612271,102.516705 C122.612271,106.820683 126.101335,110.309747 130.405313,110.309747 C134.709291,110.309747 138.198355,106.820683 138.198355,102.516705 C138.181555,98.2221822 134.69986,94.7473144 130.405313,94.738943 L130.405313,94.7236625 Z" id="Shape" fill="#1E1E1E"></path>
            <path d="M77.3133038,101.217864 C77.3133038,104.820928 79.2355154,108.150297 82.3558604,109.951829 C85.4762054,111.753361 89.3206289,111.753361 92.4409739,109.951829 C95.5613189,108.150297 97.4835305,104.820928 97.4835305,101.217864 C97.4835305,97.6148002 95.5613189,94.2854316 92.4409739,92.4838996 C89.3206289,90.6823675 85.4762054,90.6823675 82.3558604,92.4838996 C79.2355154,94.2854316 77.3133038,97.6148002 77.3133038,101.217864 Z" id="Path" fill="#F42C3F"></path>
            <path d="M87.390777,113.587409 C82.383978,113.587409 77.8703247,110.570976 75.9550202,105.945001 C74.0397157,101.319026 75.1000561,95.9947796 78.6414904,92.4555313 C82.1829247,88.916283 87.5078251,87.8592303 92.1326165,89.7773908 C96.757408,91.6955513 99.7710519,96.2110662 99.7679637,101.217864 C99.7637436,108.050611 94.2235246,113.587409 87.390777,113.587409 L87.390777,113.587409 Z M87.390777,93.4248223 C84.2387856,93.4248223 81.3971597,95.3235361 80.1909448,98.2355963 C78.98473,101.147657 79.6514696,104.499583 81.8802641,106.728377 C84.1090586,108.957172 87.4609849,109.623911 90.3730452,108.417696 C93.2851054,107.211482 95.183819,104.369856 95.183819,101.217864 C95.183819,96.913886 91.6947552,93.4248223 87.390777,93.4248223 Z" id="Shape" fill="#1E1E1E"></path>
            <path d="M109.70791,101.217864 C109.70791,107.462852 114.770473,112.525416 121.015461,112.525416 C127.26045,112.525416 132.323013,107.462852 132.323013,101.217864 C132.323013,94.972876 127.26045,89.9103129 121.015461,89.9103129 C114.770473,89.9103129 109.70791,94.972876 109.70791,101.217864 Z" id="Path" fill="#F42C3F"></path>
            <path d="M121.007821,114.817489 C115.502808,114.820577 110.538279,111.506407 108.430174,106.421028 C106.322069,101.33565 107.485763,95.4810713 111.378395,91.5884384 C115.271028,87.6958056 121.125607,86.5321116 126.210985,88.6402166 C131.296364,90.7483217 134.610534,95.7128509 134.607446,101.217864 C134.594826,108.723495 128.513452,114.804869 121.007821,114.817489 L121.007821,114.817489 Z M121.007821,92.1947407 C117.357616,92.1916532 114.065115,94.3881052 112.666099,97.7595684 C111.267084,101.131032 112.037177,105.013289 114.617169,107.595468 C117.197162,110.177647 121.078765,110.951028 124.451413,109.554869 C127.82406,108.15871 130.023301,104.868071 130.023301,101.217864 C130.014903,96.2409961 125.98468,92.2073579 121.007821,92.1947407 L121.007821,92.1947407 Z" id="Shape" fill="#1E1E1E"></path>
            <path d="M96.2687326,105.037983 C96.2687326,110.607837 100.783992,115.123096 106.353846,115.123096 C111.9237,115.123096 116.438959,110.607837 116.438959,105.037983 C116.438959,99.4681286 111.9237,94.9528695 106.353846,94.9528695 C100.783992,94.9528695 96.2687326,99.4681286 96.2687326,105.037983 Z" id="Path" fill="#F42C3F"></path>
            <path d="M106.353846,117.415177 C101.346356,117.42135 96.8284979,114.409668 94.9079294,109.785124 C92.9873608,105.16058 94.0425251,99.8344277 97.58117,96.2914087 C101.119815,92.7483896 106.44466,91.6866465 111.071573,93.6015007 C115.698486,95.5163549 118.71575,100.030489 118.71575,105.037983 C118.707354,111.86427 113.180118,117.398338 106.353846,117.415177 L106.353846,117.415177 Z M106.353846,97.2525661 C103.199776,97.2463982 100.352981,99.142014 99.1423976,102.054518 C97.9318147,104.967023 98.5961788,108.322053 100.825352,110.553415 C103.054525,112.784778 106.408901,113.452436 109.322593,112.244713 C112.236284,111.03699 114.134694,108.192057 114.131611,105.037983 C114.127405,100.742948 110.648875,97.2610007 106.353846,97.2525661 L106.353846,97.2525661 Z" id="Shape" fill="#1E1E1E"></path>
            <path d="M132.345933,108.682376 C129.446633,108.65622 126.577185,109.269238 123.941672,110.477832 C118.465479,108.032008 112.195964,108.090576 106.766419,110.638277 C104.037256,109.321194 101.040906,108.651852 98.0107069,108.682376 C94.6071822,108.631832 91.2519811,109.491734 88.292325,111.173094 C82.2360773,107.852821 74.9041685,107.852821 68.8479208,111.173094 C65.8860217,109.490413 62.5280057,108.630466 59.1218987,108.682376 C51.0690886,108.682376 44.5443259,113.029671 44.5443259,118.400758 L146.923506,118.400758 C146.923506,113.029671 140.398744,108.682376 132.345933,108.682376 L132.345933,108.682376 Z" id="Path" fill="#50DD50"></path>
            <path d="M131.047093,108.682376 C128.455253,108.663503 125.884222,109.146058 123.475618,110.10346 C126.256664,112.196885 127.998638,115.138377 127.998638,118.400758 L145.632306,118.400758 C145.632306,113.029671 139.099903,108.682376 131.047093,108.682376 L131.047093,108.682376 Z" id="Path" fill="#42BC42"></path>
            <path d="M141.735785,120.71575 L39.3566048,120.71575 C38.0907288,120.71575 37.0645335,119.689555 37.0645335,118.423679 C37.0645335,112.571257 42.6648274,107.727347 50.6870768,106.627152 C51.4991309,106.516604 52.3084769,106.847678 52.8102418,107.495664 C53.3120068,108.143649 53.4299607,109.010101 53.1196714,109.768634 C52.8093822,110.527168 52.1179902,111.062545 51.305936,111.173094 C47.0808848,111.746111 43.6656987,113.717293 42.2828156,116.131608 L138.817214,116.131608 C137.174563,113.190116 132.498738,110.997368 127.150572,110.997368 C124.582165,110.969814 122.039092,111.507119 119.701341,112.571257 C119.082099,112.863392 118.364682,112.863392 117.74544,112.571257 C115.407923,111.506404 112.864689,110.969065 110.296208,110.997368 C107.626211,110.962959 104.984673,111.548805 102.579569,112.708781 C101.930804,113.035696 101.16547,113.035696 100.516705,112.708781 C98.1116006,111.548805 95.4700622,110.962959 92.800065,110.997368 C89.8089533,110.947304 86.8583255,111.693531 84.2506392,113.159555 C83.5261041,113.592942 82.6219814,113.592942 81.8974463,113.159555 C76.5650272,110.276887 70.1386543,110.276887 64.8062352,113.159555 C64.0817001,113.592942 63.1775774,113.592942 62.4530423,113.159555 C60.8017765,112.204953 58.9888128,111.562646 57.104876,111.264776 C56.267905,111.161382 55.5553181,110.606726 55.2496612,109.820733 C54.9440042,109.03474 55.0946561,108.144388 55.6418822,107.502707 C56.1891084,106.861026 57.0445045,106.571679 57.8688998,106.749396 C59.8547181,107.082028 61.7821116,107.699618 63.5914375,108.583053 C69.7501071,105.69016 76.8771719,105.69016 83.0358415,108.583053 C88.8597647,105.855466 95.5599141,105.69198 101.509935,108.132279 C107.006198,105.88885 113.153707,105.839626 118.685189,107.994755 C121.359747,106.935162 124.212686,106.398291 127.08945,106.413226 C136.548064,106.413226 143.966734,111.68499 143.966734,118.423679 C143.966734,119.666064 142.977729,120.68262 141.735785,120.71575 L141.735785,120.71575 Z" id="Path" fill="#1E1E1E"></path>
            <path d="M83.1275244,97.4588674 C83.1275244,97.7204818 83.3396047,97.9325622 83.6012191,97.9325622 C83.8628335,97.9325622 84.0749139,97.7204818 84.0749139,97.4588674 C84.0749139,97.197253 83.8628335,96.9851727 83.6012191,96.9851727 C83.3396047,96.9851727 83.1275244,97.197253 83.1275244,97.4588674 Z" id="Path" fill="#F9F9F9"></path>
            <path d="M124.904342,98.5819825 C124.904217,98.8113516 125.026513,99.0233509 125.225131,99.1380716 C125.42375,99.2527923 125.668494,99.2527923 125.867113,99.1380716 C126.065732,99.0233509 126.188027,98.8113516 126.187902,98.5819825 C126.188027,98.3526133 126.065732,98.140614 125.867113,98.0258933 C125.668494,97.9111727 125.42375,97.9111727 125.225131,98.0258933 C125.026513,98.140614 124.904217,98.3526133 124.904342,98.5819825 L124.904342,98.5819825 Z" id="Path" fill="#F9F9F9"></path>
            <path d="M56.2644499,105.511678 C56.2644499,105.773292 56.4765303,105.985372 56.7381447,105.985372 C56.9997591,105.985372 57.2118394,105.773292 57.2118394,105.511678 C57.2118394,105.250063 56.9997591,105.037983 56.7381447,105.037983 C56.4765303,105.037983 56.2644499,105.250063 56.2644499,105.511678 Z" id="Path" fill="#F9F9F9"></path>
            <path d="M151.904941,90.1548006 C151.904941,82.8928921 157.791881,77.0059521 165.053789,77.0059521 C172.315698,77.0059521 178.202638,82.8928921 178.202638,90.1548006" id="Path" fill="#FFFDFC"></path>
            <path d="M156.06123,111.478703 L172.671106,111.478703 C174.418174,111.478703 175.291707,112.352237 175.291707,114.099304 L175.291707,114.359073 C175.291707,116.10614 174.418174,116.979674 172.671106,116.979674 L156.06123,116.979674 C154.314163,116.979674 153.440629,116.10614 153.440629,114.359073 L153.440629,114.099304 C153.440629,112.352237 154.314163,111.478703 156.06123,111.478703 Z" id="Path" fill="#F1F7FA"></path>
            <path d="M170.256791,111.478703 L163.854272,111.478703 C166.222746,111.478703 168.148086,112.708781 168.148086,114.221548 C168.148086,115.734315 166.222746,116.972034 163.854272,116.972034 L170.256791,116.972034 C172.632905,116.972034 174.558245,115.741955 174.558245,114.221548 C174.558245,112.701141 172.632905,111.478703 170.256791,111.478703 L170.256791,111.478703 Z" id="Path" fill="#96E1EE"></path>
            <path d="M166.98677,119.264118 L157.298949,119.264118 C156.60807,119.264118 155.954027,118.952571 155.518773,118.416038 C155.081836,118.954656 154.424512,119.266463 153.730958,119.264118 C150.040723,119.264118 147.145073,117.056076 147.145073,114.221548 C147.145073,111.38702 150.040723,109.186632 153.730958,109.186632 L166.98677,109.186632 C170.684644,109.186632 173.580294,111.39466 173.580294,114.221548 C173.580294,117.048436 170.669364,119.264118 166.98677,119.264118 L166.98677,119.264118 Z M151.904941,114.221548 C152.458011,114.54397 153.091181,114.702925 153.730958,114.679962 C154.425793,114.679468 155.083343,114.994192 155.518773,115.535669 C155.952524,114.996276 156.606792,114.681778 157.298949,114.679962 L166.98677,114.679962 C167.626814,114.705484 168.26069,114.546352 168.812786,114.221548 C168.258149,113.903725 167.625593,113.747571 166.98677,113.770774 L153.730958,113.770774 C153.092387,113.749994 152.460482,113.905987 151.904941,114.221548 Z" id="Shape" fill="#1E1E1E"></path>
            <path d="M148.810645,90.1548006 C148.393611,91.6472809 148.180299,93.1892978 148.176505,94.738943 C148.176505,103.907228 155.281926,111.295337 164.052918,111.295337 C172.823911,111.295337 179.921691,103.907228 179.921691,94.738943 C179.917898,93.1892978 179.704585,91.6472809 179.287552,90.1548006 L148.810645,90.1548006 Z" id="Path" fill="#FFFDFC"></path>
            <path d="M176.66695,90.1548006 L170.55476,90.1548006 C170.971794,91.6472809 171.185106,93.1892978 171.1889,94.738943 C171.1889,102.784113 165.680289,109.484601 158.383862,110.982088 C159.389782,111.186742 160.413437,111.291667 161.439957,111.295337 C170.21095,111.295337 177.31637,103.884307 177.31637,94.738943 C177.307603,93.188602 177.089149,91.6465722 176.66695,90.1548006 L176.66695,90.1548006 Z" id="Path" fill="#C4EAFC"></path>
            <path d="M160.362684,113.763192 C153.256377,113.748545 146.80743,109.602368 143.844491,103.143204 C143.467321,102.394047 143.529466,101.498704 144.006519,100.808838 C144.483571,100.118972 145.299336,99.7447682 146.133406,99.8332016 C146.967477,99.921635 147.686636,100.458581 148.00842,101.233145 C150.670406,107.034571 157.012394,110.200174 163.248882,108.840421 C169.485371,107.480668 173.933992,101.962369 173.939386,95.5793691 C173.940381,94.873082 173.884169,94.1678746 173.7713,93.4706636 L146.984628,93.4706636 C146.869234,94.1676704 146.810466,94.8728765 146.808903,95.5793691 C146.808903,96.8452451 145.782707,97.8714404 144.516831,97.8714404 C143.250955,97.8714404 142.22476,96.8452451 142.22476,95.5793691 C142.240468,93.8734111 142.497696,92.1782742 142.988784,90.5444528 L143.470119,88.8865211 L177.392773,88.8865211 L177.874108,90.5368126 C178.345562,92.1763603 178.587261,93.8733912 178.59229,95.5793691 C178.59229,100.409956 176.67023,105.042029 173.250191,108.453467 C169.830153,111.864905 165.193256,113.775312 160.362684,113.763192 L160.362684,113.763192 Z" id="Path" fill="#1E1E1E"></path>
            <path d="M154.296335,102.829954 C154.296335,103.209717 154.604194,103.517576 154.983957,103.517576 C155.363719,103.517576 155.671578,103.209717 155.671578,102.829954 C155.671578,102.450192 155.363719,102.142333 154.983957,102.142333 C154.604194,102.142333 154.296335,102.450192 154.296335,102.829954 L154.296335,102.829954 Z" id="Path" fill="#F7BBCF"></path>
            <path d="M173.618495,93.4019015 C172.35262,93.4019015 171.326424,92.3757062 171.326424,91.1098303 C171.334532,88.881841 170.651148,86.7062219 169.370524,84.8830368 C168.642645,83.8471283 168.892353,82.4172964 169.928261,81.6894178 C170.964169,80.9615391 172.394001,81.2112466 173.12188,82.247155 C174.944249,84.8425717 175.918408,87.9385288 175.910614,91.1098303 C175.910614,92.3757063 174.884371,93.4019015 173.618495,93.4019015 L173.618495,93.4019015 Z M147.328439,93.4019015 C146.062563,93.4019015 145.036367,92.3757063 145.036367,91.1098303 C145.035312,85.5060195 148.070423,80.3414939 152.966638,77.6157331 C157.862854,74.8899723 163.851541,75.0308798 168.61414,77.9839025 C169.310186,78.4165431 169.722549,79.1876559 169.695894,80.0067702 C169.66924,80.8258844 169.207618,81.5685572 168.484917,81.9550308 C167.762216,82.3415044 166.888231,82.3130643 166.192185,81.8804236 C162.843771,79.807404 158.635318,79.7101838 155.194748,81.6263699 C151.754179,83.542556 149.621053,87.1716472 149.62051,91.1098303 C149.62051,92.3757063 148.594315,93.4019015 147.328439,93.4019015 L147.328439,93.4019015 Z" id="Shape" fill="#1E1E1E"></path>
            <path d="M154.5563,85.2796453 C154.638515,85.4554746 155.098691,85.4140052 155.584133,85.1870209 C156.069574,84.9600366 156.396454,84.6334917 156.314239,84.4576625 C156.232025,84.2818333 155.771848,84.3233026 155.286407,84.5502869 C154.800965,84.7772712 154.474085,85.1038161 154.5563,85.2796453 L154.5563,85.2796453 Z" id="Path" fill="#1E1E1E"></path>
            <path d="M163.722119,86.117977 C163.753849,86.2253313 163.956372,86.2731154 164.253362,86.2433205 C164.550352,86.2135257 164.896661,86.1106811 165.161774,85.9735467 C165.426887,85.8364123 165.570502,85.6858343 165.538494,85.5785625 C165.506764,85.4712082 165.30424,85.423424 165.007251,85.4532189 C164.710261,85.4830137 164.363952,85.5858583 164.098839,85.7229927 C163.833726,85.8601272 163.690111,86.0107051 163.722119,86.117977 L163.722119,86.117977 Z" id="Path" fill="#1E1E1E"></path>
        </g>
    </g>
</svg>