<svg t="1574960175505" class="icon" viewBox="0 0 1024 1024" version="1.1" xmlns="http://www.w3.org/2000/svg" p-id="1484" width="200" height="200"><path d="M1000 487.504c0 17.6-14.4 32-32 32H296c-17.6 0-32-14.4-32-32V72c0-17.6 14.4-32 32-32h672c17.6 0 32 14.4 32 32v415.504z" fill="#F7BB83" p-id="1485"></path><path d="M264 112h744v96H264z" fill="#6E4123" p-id="1486"></path><path d="M528 248h408v80H528z" fill="#F6E89A" p-id="1487"></path><path d="M840 384v399.04L32 784V384z" fill="#B2EDA6" p-id="1488"></path><path d="M160 918.512a381.336 94.504 0 1 0 762.672 0 381.336 94.504 0 1 0-762.672 0Z" fill="#B8CBCD" p-id="1489"></path><path d="M936 488v399.04L136 888V488z" fill="#B2EDA6" p-id="1490"></path><path d="M508.328 683.336m-115.336 0a115.336 115.336 0 1 0 230.672 0 115.336 115.336 0 1 0-230.672 0Z" fill="#84C671" p-id="1491"></path></svg>